<?xml version="1.0" encoding="UTF-8" standalone="no"?>
<!-- Created with Inkscape (http://www.inkscape.org/) -->

<svg
   xmlns:dc="http://purl.org/dc/elements/1.1/"
   xmlns:cc="http://creativecommons.org/ns#"
   xmlns:rdf="http://www.w3.org/1999/02/22-rdf-syntax-ns#"
   xmlns:svg="http://www.w3.org/2000/svg"
   xmlns="http://www.w3.org/2000/svg"
   xmlns:xlink="http://www.w3.org/1999/xlink"
   xmlns:sodipodi="http://sodipodi.sourceforge.net/DTD/sodipodi-0.dtd"
   xmlns:inkscape="http://www.inkscape.org/namespaces/inkscape"
   width="210mm"
   height="297mm"
   id="svg12215"
   version="1.1"
   inkscape:version="0.47pre4 r22446"
   sodipodi:docname="search.svg">
  <defs
     id="defs12217">
    <linearGradient
       id="linearGradient12975">
      <stop
         style="stop-color:#ffffff;stop-opacity:1;"
         offset="0"
         id="stop12977" />
      <stop
         style="stop-color:#d2d5d8;stop-opacity:1;"
         offset="1"
         id="stop12979" />
    </linearGradient>
    <filter
       inkscape:collect="always"
       id="filter12971">
      <feGaussianBlur
         inkscape:collect="always"
         stdDeviation="3.2250001"
         id="feGaussianBlur12973" />
    </filter>
    <linearGradient
       inkscape:collect="always"
       xlink:href="#linearGradient12975"
       id="linearGradient12981"
       x1="-113.21428"
       y1="601.64789"
       x2="-144.28572"
       y2="700.20581"
       gradientUnits="userSpaceOnUse"
       gradientTransform="matrix(4.7719882,0,0,4.7719882,896.75599,-2714.7514)" />
  </defs>
  <sodipodi:namedview
     id="base"
     pagecolor="#ffffff"
     bordercolor="#666666"
     borderopacity="1.0"
     inkscape:pageopacity="0.0"
     inkscape:pageshadow="2"
     inkscape:zoom="0.49497475"
     inkscape:cx="704.49834"
     inkscape:cy="679.53872"
     inkscape:document-units="px"
     inkscape:current-layer="layer1"
     showgrid="false"
     inkscape:window-width="1280"
     inkscape:window-height="645"
     inkscape:window-x="0"
     inkscape:window-y="25"
     inkscape:window-maximized="1" />
  <metadata
     id="metadata12220">
    <rdf:RDF>
      <cc:Work
         rdf:about="">
        <dc:format>image/svg+xml</dc:format>
        <dc:type
           rdf:resource="http://purl.org/dc/dcmitype/StillImage" />
        <dc:title></dc:title>
        <cc:license
           rdf:resource="http://creativecommons.org/licenses/publicdomain/" />
        <dc:creator>
          <cc:Agent>
            <dc:title>Sergio Luiz Araujo Silva</dc:title>
          </cc:Agent>
        </dc:creator>
        <dc:subject>
          <rdf:Bag>
            <rdf:li>search</rdf:li>
            <rdf:li>icons</rdf:li>
            <rdf:li>informatic</rdf:li>
            <rdf:li>computer</rdf:li>
          </rdf:Bag>
        </dc:subject>
      </cc:Work>
      <cc:License
         rdf:about="http://creativecommons.org/licenses/publicdomain/">
        <cc:permits
           rdf:resource="http://creativecommons.org/ns#Reproduction" />
        <cc:permits
           rdf:resource="http://creativecommons.org/ns#Distribution" />
        <cc:permits
           rdf:resource="http://creativecommons.org/ns#DerivativeWorks" />
      </cc:License>
    </rdf:RDF>
  </metadata>
  <g
     inkscape:label="Camada 1"
     inkscape:groupmode="layer"
     id="layer1">
    <rect
       ry="12.857142"
       y="589.86206"
       x="-156.42856"
       height="92.14286"
       width="92.14286"
       id="rect12945"
       style="color:#000000;fill:#000000;fill-opacity:1;fill-rule:nonzero;stroke:none;stroke-width:2.11599994;marker:none;visibility:visible;display:inline;overflow:visible;filter:url(#filter12971);enable-background:accumulate"
       transform="matrix(4.7719883,0,0,4.7719883,896.75601,-2714.7514)" />
    <rect
       style="color:#000000;fill:url(#linearGradient12981);fill-opacity:1;fill-rule:nonzero;stroke:#cccccc;stroke-width:10.0975275;stroke-miterlimit:4;stroke-dasharray:none;marker:none;visibility:visible;display:inline;overflow:visible;enable-background:accumulate"
       id="rect12943"
       width="439.70462"
       height="439.70462"
       x="136.64647"
       y="83.02079"
       ry="61.354134" />
    <path
       style="font-size:medium;font-style:normal;font-variant:normal;font-weight:normal;font-stretch:normal;text-indent:0;text-align:start;text-decoration:none;line-height:normal;letter-spacing:normal;word-spacing:normal;text-transform:none;direction:ltr;block-progression:tb;writing-mode:lr-tb;text-anchor:start;color:#000000;fill:#454040;fill-opacity:1;stroke:none;stroke-width:9.75617313;marker:none;visibility:visible;display:inline;overflow:visible;enable-background:accumulate;font-family:'.PhonepadTwo';-inkscape-font-specification:'.PhonepadTwo'"
       d="m 254.93857,194.08554 c -43.27283,43.27286 -43.37829,114.15961 -0.1054,157.43243 36.66261,36.66262 93.20142,42.25004 135.92126,16.76609 l 76.34367,74.23473 c 10.50715,10.19807 27.08481,9.82166 37.11738,-0.84359 10.03268,-10.66507 9.76912,-27.44662 -0.73813,-37.6446 l -75.18377,-72.86388 c 26.36127,-42.84677 21.00848,-100.04473 -16.02794,-137.08118 -43.27286,-43.27282 -114.05419,-43.27282 -157.32701,0 z m 31.73954,31.7396 c 26.10172,-26.10174 67.7462,-26.10174 93.84788,0 26.10172,26.10168 26.10172,67.74615 0,93.84783 -26.10168,26.10172 -67.74616,26.10172 -93.84788,0 -26.10168,-26.10168 -26.10168,-67.74615 0,-93.84783 z"
       id="path12423"
       inkscape:transform-center-y="35.624163"
       inkscape:transform-center-x="-36.089735" />
    <g
       style="font-size:14.43024731px;font-style:normal;font-variant:normal;font-weight:bold;font-stretch:normal;text-align:start;line-height:125%;writing-mode:lr-tb;text-anchor:start;fill:#000000;fill-opacity:1;stroke:none;font-family:Arial;-inkscape-font-specification:Arial Bold"
       id="text12983"
       transform="matrix(4.7719883,0,0,4.7719883,912.35813,-2738.1547)">
      <path
         d="m -138.33188,704.72627 2.02925,-0.19729 c 0.12213,0.68112 0.36874,1.18138 0.73983,1.5008 0.37579,0.31942 0.88075,0.47913 1.5149,0.47913 0.67171,0 1.17668,-0.14092 1.51489,-0.42276 0.3429,-0.28654 0.51436,-0.62005 0.51436,-1.00053 0,-0.24426 -0.0728,-0.45095 -0.21842,-0.62005 -0.14093,-0.1738 -0.38989,-0.32412 -0.74688,-0.45095 -0.24427,-0.0846 -0.80091,-0.23486 -1.66991,-0.45095 -1.11797,-0.27713 -1.90243,-0.61769 -2.35337,-1.02167 -0.63414,-0.56837 -0.95121,-1.26123 -0.95121,-2.07857 0,-0.5261 0.14796,-1.01697 0.4439,-1.47262 0.30063,-0.46033 0.73043,-0.81028 1.28942,-1.04986 0.56368,-0.23955 1.24244,-0.35933 2.0363,-0.35935 1.29646,2e-5 2.27116,0.2842 2.9241,0.85257 0.65762,0.56839 1.00287,1.32701 1.03576,2.27587 l -2.08562,0.0916 c -0.0893,-0.5308 -0.28185,-0.91128 -0.57777,-1.14146 -0.29125,-0.23486 -0.73045,-0.35229 -1.31761,-0.3523 -0.60596,1e-5 -1.08039,0.12449 -1.4233,0.37344 -0.22077,0.15972 -0.33116,0.37345 -0.33116,0.64119 0,0.24427 0.10334,0.4533 0.31003,0.62709 0.26304,0.22078 0.90188,0.45095 1.91651,0.69051 1.01462,0.23957 1.76385,0.48853 2.24768,0.74688 0.48852,0.25366 0.869,0.60361 1.14146,1.04986 0.27713,0.44155 0.4157,0.98879 0.41571,1.64172 -1e-5,0.59187 -0.16441,1.14615 -0.49322,1.66286 -0.32882,0.51671 -0.79386,0.90189 -1.39511,1.15555 -0.60127,0.24896 -1.35049,0.37344 -2.24768,0.37344 -1.30587,0 -2.30875,-0.30063 -3.00865,-0.90189 -0.69991,-0.60596 -1.11797,-1.48671 -1.25419,-2.64226"
         id="path12988" />
      <path
         d="m -123.84527,705.70566 1.97289,0.33117 c -0.25366,0.72339 -0.65529,1.27533 -1.20487,1.65581 -0.5449,0.37579 -1.22836,0.56368 -2.05039,0.56368 -1.30117,0 -2.26412,-0.42511 -2.88887,-1.27533 -0.49322,-0.68111 -0.73983,-1.54072 -0.73983,-2.57884 0,-1.24009 0.32411,-2.21009 0.97235,-2.91 0.64823,-0.7046 1.46792,-1.0569 2.45906,-1.05691 1.11327,10e-6 1.99167,0.36875 2.63521,1.10623 0.64353,0.73279 0.95121,1.8578 0.92303,3.37504 l -4.9604,0 c 0.0141,0.58717 0.1738,1.04516 0.47913,1.37397 0.30533,0.32412 0.68581,0.48618 1.14146,0.48618 0.31002,0 0.57072,-0.0846 0.7821,-0.25366 0.21138,-0.1691 0.37109,-0.44155 0.47913,-0.81734 m 0.11274,-2.00106 c -0.0141,-0.57308 -0.16206,-1.00758 -0.4439,-1.30352 -0.28184,-0.30062 -0.62475,-0.45094 -1.02872,-0.45094 -0.43216,0 -0.78916,0.15736 -1.07099,0.47208 -0.28185,0.31473 -0.42042,0.74219 -0.41572,1.28238 l 2.95933,0"
         id="path12990" />
      <path
         d="m -118.66644,702.88726 -1.79674,-0.32412 c 0.20199,-0.72338 0.54959,-1.25888 1.04282,-1.60649 0.49321,-0.3476 1.226,-0.5214 2.19835,-0.52141 0.8831,10e-6 1.54073,0.1057 1.97289,0.31707 0.43215,0.20669 0.73513,0.47209 0.90894,0.7962 0.17849,0.31943 0.26774,0.90895 0.26774,1.76855 l -0.0211,2.3111 c -10e-6,0.65763 0.0305,1.1438 0.0916,1.45852 0.0658,0.31003 0.18554,0.64354 0.35935,1.00054 l -1.95879,0 c -0.0517,-0.13153 -0.11509,-0.32647 -0.19024,-0.58482 -0.0329,-0.11743 -0.0564,-0.19494 -0.0705,-0.23252 -0.33821,0.32882 -0.6999,0.57543 -1.08508,0.73983 -0.38519,0.16441 -0.79621,0.24661 -1.23306,0.24661 -0.77036,0 -1.37867,-0.20903 -1.82491,-0.62709 -0.44156,-0.41806 -0.66233,-0.94652 -0.66233,-1.58536 0,-0.42276 0.10099,-0.79854 0.30298,-1.12736 0.20198,-0.33351 0.48382,-0.58716 0.84552,-0.76097 0.36639,-0.17849 0.89249,-0.33351 1.57831,-0.46504 0.92537,-0.17379 1.56656,-0.33585 1.92356,-0.48617 l 0,-0.19729 c 0,-0.38048 -0.094,-0.65058 -0.28184,-0.81029 -0.1879,-0.1644 -0.54255,-0.24661 -1.06395,-0.24661 -0.3523,0 -0.6271,0.0705 -0.82438,0.21138 -0.19729,0.13623 -0.357,0.37814 -0.47913,0.72574 m 2.6493,1.60649 c -0.25366,0.0846 -0.65528,0.18555 -1.20487,0.30298 -0.54959,0.11744 -0.90894,0.23252 -1.07804,0.34525 -0.25835,0.1832 -0.38753,0.41572 -0.38753,0.69756 0,0.27714 0.10334,0.51671 0.31003,0.71869 0.20668,0.20199 0.46973,0.30298 0.78915,0.30298 0.35699,0 0.69755,-0.11743 1.02167,-0.3523 0.23956,-0.1785 0.39692,-0.39692 0.47209,-0.65528 0.0517,-0.1691 0.0775,-0.49087 0.0775,-0.9653 l 0,-0.39458"
         id="path12992" />
      <path
         d="m -110.21826,708.08722 -1.97994,0 0,-7.48287 1.83902,0 0,1.06395 c 0.31471,-0.50261 0.59655,-0.83378 0.84552,-0.99349 0.25365,-0.15971 0.54019,-0.23956 0.85961,-0.23957 0.45094,10e-6 0.88545,0.12449 1.30352,0.37344 l -0.61301,1.72628 c -0.33351,-0.21608 -0.64354,-0.32411 -0.93007,-0.32412 -0.27715,1e-5 -0.51202,0.0775 -0.7046,0.23252 -0.1926,0.15032 -0.34526,0.42511 -0.458,0.82438 -0.10804,0.39928 -0.16206,1.23541 -0.16205,2.50838 l 0,2.3111"
         id="path12994" />
      <path
         d="m -99.980399,702.8168 -1.951751,0.3523 c -0.0658,-0.38988 -0.21608,-0.68346 -0.45094,-0.88075 -0.23018,-0.19729 -0.53081,-0.29593 -0.90189,-0.29594 -0.49323,1e-5 -0.8878,0.17146 -1.18373,0.51436 -0.29124,0.33822 -0.43686,0.90659 -0.43686,1.70514 0,0.8878 0.14797,1.5149 0.4439,1.88129 0.30063,0.36639 0.70225,0.54959 1.20487,0.54959 0.37579,0 0.68346,-0.10569 0.92303,-0.31708 0.23956,-0.21607 0.40866,-0.58481 0.50731,-1.10622 l 1.944706,0.33116 c -0.201996,0.8925 -0.589526,1.56657 -1.162596,2.02221 -0.57308,0.45564 -1.34109,0.68346 -2.30405,0.68346 -1.09448,0 -1.96819,-0.34525 -2.62111,-1.03576 -0.64824,-0.69051 -0.97236,-1.64642 -0.97236,-2.86773 0,-1.2354 0.32647,-2.196 0.9794,-2.88182 0.65293,-0.69051 1.53603,-1.03576 2.6493,-1.03577 0.91128,10e-6 1.63467,0.1973 2.17018,0.59187 0.54019,0.38988 0.92772,0.98645 1.162591,1.78969"
         id="path12996" />
      <path
         d="m -96.499666,697.75776 0,3.7978 c 0.638836,-0.74687 1.402154,-1.12031 2.289956,-1.12032 0.455637,10e-6 0.866655,0.0846 1.233054,0.25366 0.366386,0.16911 0.64118,0.38519 0.824384,0.64823 0.187886,0.26306 0.314715,0.5543 0.380485,0.87371 0.07045,0.31942 0.105682,0.81499 0.10569,1.48671 l 0,4.38967 -1.979931,0 0,-3.95282 c -6e-6,-0.78445 -0.03758,-1.28237 -0.112736,-1.49375 -0.07516,-0.21138 -0.209038,-0.37813 -0.401623,-0.50027 -0.187899,-0.12682 -0.425115,-0.19024 -0.711648,-0.19024 -0.328819,0 -0.622403,0.0799 -0.880753,0.23956 -0.258357,0.15972 -0.4486,0.40163 -0.570727,0.72574 -0.117437,0.31943 -0.176154,0.79386 -0.176151,1.4233 l 0,3.74848 -1.979931,0 0,-10.32946 1.979931,0"
         id="path12998" />
    </g>
  </g>
</svg>
